<svg width="76" height="76" viewBox="0 0 76 76" fill="none" xmlns="http://www.w3.org/2000/svg">
<path d="M7.09103 20.1547L38 2.3094L68.909 20.1547V55.8453L38 73.6906L7.09103 55.8453V20.1547Z" stroke="#FFB100" stroke-width="4"/>
<path d="M47 29H29C27.3433 29 26 30.3433 26 32V44C26 45.6567 27.3433 47 29 47H47C48.6567 47 50 45.6567 50 44V32C50 30.3433 48.6567 29 47 29ZM47.75 30.5L38 38L28.25 30.5H47.75ZM27.5 44V32L34.25 37.25L27.5713 44.4335C27.5293 44.2955 27.5 44.1523 27.5 44ZM28.6662 45.4602L35.435 38.2482L38 40.1862L40.4547 38.2355L47.3338 45.4595C47.2258 45.4843 28.7742 45.4843 28.6662 45.4602ZM48.4288 44.4342L41.75 37.25L48.5 32V44C48.5 44.1523 48.4707 44.2955 48.4288 44.4342Z" fill="#FFB100"/>
</svg>
