<svg width="64" height="64" viewBox="0 0 64 64" fill="none" xmlns="http://www.w3.org/2000/svg">
<path d="M5.28719 16.5774L32 1.1547L58.7128 16.5774V47.4226L32 62.8453L5.28719 47.4226V16.5774Z" stroke="white" stroke-width="2"/>
<path d="M26.3982 31.3657L36.4065 22.2451C36.7349 21.9183 37.2675 21.9183 37.596 22.2451C37.9244 22.5718 37.9244 23.1019 37.596 23.4287L28.1911 32L37.5951 40.5713C37.9236 40.898 37.9236 41.4282 37.5951 41.7549C37.2667 42.0817 36.7341 42.0817 36.4057 41.7549L26.3974 32.6343C26.2223 32.4601 26.1473 32.2292 26.159 32.0008C26.1481 31.7716 26.2231 31.5407 26.3982 31.3657Z" fill="white"/>
</svg>
