<svg width="64" height="64" viewBox="0 0 64 64" fill="none" xmlns="http://www.w3.org/2000/svg">
<path d="M5.28719 16.5774L32 1.1547L58.7128 16.5774V47.4226L32 62.8453L5.28719 47.4226V16.5774Z" stroke="white" stroke-width="2"/>
<path d="M37.6018 31.3657L27.5935 22.2451C27.2651 21.9183 26.7325 21.9183 26.404 22.2451C26.0756 22.5718 26.0756 23.1019 26.404 23.4287L35.8089 32L26.4049 40.5713C26.0764 40.898 26.0764 41.4282 26.4049 41.7549C26.7333 42.0817 27.2659 42.0817 27.5943 41.7549L37.6026 32.6343C37.7777 32.4601 37.8527 32.2292 37.841 32.0008C37.8519 31.7716 37.7769 31.5407 37.6018 31.3657Z" fill="white"/>
</svg>
